<svg width="33" height="29" viewBox="0 0 33 29" fill="none" xmlns="http://www.w3.org/2000/svg">
<path d="M24.0979 11.125L17.7104 1.55833C17.4333 1.15 16.9666 0.945831 16.5 0.945831C16.0333 0.945831 15.5666 1.15 15.2896 1.57291L8.90206 11.125H1.91665C1.11456 11.125 0.458313 11.7812 0.458313 12.5833C0.458313 12.7146 0.472896 12.8458 0.516646 12.9771L4.22081 26.4958C4.55623 27.7208 5.67915 28.625 7.02081 28.625H25.9791C27.3208 28.625 28.4437 27.7208 28.7937 26.4958L32.4979 12.9771L32.5416 12.5833C32.5416 11.7812 31.8854 11.125 31.0833 11.125H24.0979ZM12.125 11.125L16.5 4.70833L20.875 11.125H12.125ZM16.5 22.7917C14.8958 22.7917 13.5833 21.4792 13.5833 19.875C13.5833 18.2708 14.8958 16.9583 16.5 16.9583C18.1041 16.9583 19.4166 18.2708 19.4166 19.875C19.4166 21.4792 18.1041 22.7917 16.5 22.7917Z" fill="#545454"/>
</svg>
